<?xml version="1.0" standalone="no"?>
<!DOCTYPE svg PUBLIC "-//W3C//DTD SVG 20010904//EN"
 "http://www.w3.org/TR/2001/REC-SVG-20010904/DTD/svg10.dtd">
<svg version="1.0" xmlns="http://www.w3.org/2000/svg"
 width="192.000000pt" height="192.000000pt" viewBox="0 0 192.000000 192.000000"
 preserveAspectRatio="xMidYMid meet">
<metadata>
Created by potrace 1.14, written by Peter Selinger 2001-2017
</metadata>
<g transform="translate(0.000000,192.000000) scale(0.100000,-0.100000)"
fill="#000000" stroke="none">
<path d="M670 1355 l0 -25 130 0 130 0 0 25 0 25 -130 0 -130 0 0 -25z"/>
<path d="M990 1355 l0 -25 129 0 c119 0 129 1 134 19 3 11 2 22 -1 25 -3 3
-63 6 -134 6 l-128 0 0 -25z"/>
<path d="M509 1329 c-31 -17 -78 -53 -105 -80 -45 -46 -47 -50 -31 -66 15 -15
20 -13 72 36 30 29 79 63 109 77 44 20 53 28 49 44 -7 27 -28 25 -94 -11z"/>
<path d="M1317 1341 c-4 -16 8 -25 58 -50 35 -18 84 -52 108 -77 40 -40 48
-44 66 -34 l22 11 -21 29 c-30 42 -75 77 -141 111 -68 34 -85 36 -92 10z"/>
<path d="M680 1245 l0 -25 130 0 130 0 0 25 0 25 -130 0 -130 0 0 -25z"/>
<path d="M982 1248 c3 -22 7 -23 131 -26 75 -1 127 1 127 7 0 5 3 16 6 25 5
14 -10 16 -131 16 -136 0 -136 0 -133 -22z"/>
<path d="M563 1241 c-23 -11 -60 -38 -83 -61 -42 -42 -42 -42 -20 -57 20 -14
24 -13 57 21 20 20 54 44 75 53 29 13 38 22 36 37 -4 27 -17 28 -65 7z"/>
<path d="M1297 1253 c-18 -17 -5 -42 27 -53 19 -6 53 -29 76 -51 34 -33 44
-38 60 -29 16 9 18 15 10 29 -26 49 -153 125 -173 104z"/>
<path d="M688 1165 c-3 -4 -4 -15 -1 -26 5 -18 15 -19 135 -19 128 0 129 0
126 23 -3 21 -7 22 -129 25 -69 1 -128 0 -131 -3z"/>
<path d="M980 1145 l0 -25 131 0 c130 0 130 0 127 23 -3 21 -7 22 -130 25
l-128 3 0 -26z"/>
<path d="M605 1144 c-34 -17 -75 -53 -75 -65 0 -5 9 -13 21 -20 17 -9 23 -7
35 9 7 10 27 25 44 32 31 13 34 18 24 44 -8 20 -12 20 -49 0z"/>
<path d="M1270 1151 c0 -5 -3 -16 -6 -24 -3 -10 2 -18 15 -22 12 -3 34 -17 50
-30 25 -21 30 -23 47 -10 18 13 18 14 -6 40 -38 41 -100 69 -100 46z"/>
<path d="M310 1104 c-36 -94 -37 -207 -3 -285 16 -36 20 -39 36 -26 18 12 18
16 3 67 -20 67 -20 120 -1 195 13 47 13 60 3 67 -21 13 -28 10 -38 -18z"/>
<path d="M1571 1121 c-13 -8 -13 -14 -2 -38 21 -46 25 -171 7 -228 -14 -46
-14 -51 1 -62 23 -17 30 -9 48 49 20 68 19 173 -2 237 -16 51 -26 59 -52 42z"/>
<path d="M405 1056 c-26 -62 -13 -226 18 -226 30 1 37 15 26 55 -11 39 -8 136
5 167 5 11 1 20 -14 28 -18 10 -22 7 -35 -24z"/>
<path d="M1478 1079 c-14 -8 -15 -15 -8 -35 13 -33 13 -135 0 -168 -8 -21 -6
-27 11 -37 29 -15 38 -3 48 62 11 68 -7 190 -28 189 -3 0 -14 -5 -23 -11z"/>
<path d="M499 1013 c-10 -27 -6 -113 6 -133 4 -7 13 -7 23 -1 12 7 16 25 17
78 1 62 -6 82 -28 83 -4 0 -12 -12 -18 -27z"/>
<path d="M1385 1032 c-5 -4 -10 -38 -10 -75 1 -54 4 -71 18 -78 14 -8 19 -5
27 16 11 29 13 88 4 123 -6 22 -21 28 -39 14z"/>
<path d="M546 851 c-16 -17 -15 -20 18 -49 43 -38 75 -49 87 -31 13 21 11 39
-6 39 -8 0 -30 13 -48 30 -33 29 -35 29 -51 11z"/>
<path d="M1322 839 c-18 -16 -39 -29 -47 -29 -16 0 -19 -9 -9 -34 10 -26 41
-18 84 20 45 41 47 45 22 60 -15 10 -24 6 -50 -17z"/>
<path d="M456 795 c-16 -12 -15 -16 19 -54 36 -40 106 -81 138 -81 11 0 17 8
17 23 0 17 -9 26 -34 35 -18 7 -54 30 -78 51 -38 34 -46 37 -62 26z"/>
<path d="M1410 775 c-19 -19 -53 -42 -77 -52 -41 -17 -56 -44 -33 -58 20 -12
85 18 132 63 26 25 48 48 48 51 0 3 -8 11 -19 18 -16 10 -23 7 -51 -22z"/>
<path d="M686 783 c-4 -9 -3 -20 2 -25 5 -5 65 -7 133 -6 120 3 124 4 127 26
3 22 2 22 -126 22 -112 0 -131 -2 -136 -17z"/>
<path d="M980 775 l0 -25 131 0 c130 0 130 0 127 23 -3 21 -7 22 -130 25
l-128 3 0 -26z"/>
<path d="M374 735 c-17 -12 -17 -14 -1 -38 25 -39 97 -94 161 -123 63 -29 61
-29 70 4 6 16 3 24 -11 28 -59 20 -114 54 -155 95 -41 41 -49 45 -64 34z"/>
<path d="M1479 700 c-25 -26 -72 -60 -105 -76 -49 -24 -58 -33 -56 -52 3 -18
8 -22 25 -16 55 16 141 71 183 116 43 47 45 50 28 63 -11 8 -21 14 -24 14 -3
-1 -26 -22 -51 -49z"/>
<path d="M680 665 l0 -26 128 3 c123 3 127 4 130 26 3 22 3 22 -127 22 l-131
0 0 -25z"/>
<path d="M982 668 c3 -22 7 -23 127 -26 68 -1 128 1 133 6 5 5 6 16 2 25 -5
15 -24 17 -136 17 -128 0 -129 0 -126 -22z"/>
<path d="M670 565 l0 -25 130 0 130 0 0 25 0 25 -130 0 -130 0 0 -25z"/>
<path d="M990 565 l0 -25 136 0 c120 0 135 2 130 16 -3 9 -6 20 -6 25 0 5 -58
9 -130 9 l-130 0 0 -25z"/>
</g>
</svg>
